# This file uses centimeters as units for non-parametric coordinates.

mtllib Minecart.mtl
g default
v 0.750188 0.435180 -1.250000
v -0.749812 0.435180 -1.250000
v 1.188521 2.594710 -2.030737
v -1.187333 2.594710 -2.030737
v 1.188521 2.594710 -1.827663
v -1.187349 2.594719 -1.827661
v 0.750188 0.435180 -1.125000
v -0.749817 0.435184 -1.124999
v 0.990533 2.594710 -2.030737
v 0.990533 2.594710 -1.827663
v 0.625188 0.435179 -1.125000
v 0.625188 0.435180 -1.250000
v -0.749812 0.560000 -1.250000
v 0.625188 0.560000 -1.250000
v 0.750188 0.560000 -1.250000
v 0.750188 0.560000 -1.125000
v 0.625188 0.560000 -1.125000
v -0.749817 0.560000 -1.124999
v 0.749812 0.435180 1.250000
v 1.187333 2.594710 2.030737
v 0.990227 2.594693 2.030737
v 0.625091 0.435171 1.250000
v 0.625091 0.560000 1.250000
v 0.749812 0.560000 1.250000
v 1.187349 2.594719 1.827661
v 0.990243 2.594703 1.827661
v 0.625096 0.560000 1.124999
v 0.625096 0.435176 1.124999
v 0.749817 0.435184 1.124999
v 0.749817 0.560000 1.124999
v -0.990227 2.594693 -2.030737
v -0.990244 2.594703 -1.827661
v -0.625096 0.560000 -1.124999
v -0.625096 0.435176 -1.124999
v -0.625091 0.435171 -1.250000
v -0.625091 0.560000 -1.250000
v -0.750188 0.435180 1.250000
v -1.188521 2.594710 2.030737
v -1.188521 2.594710 1.827663
v -0.750188 0.435180 1.125000
v -0.990533 2.594710 2.030737
v -0.990536 2.594716 1.827663
v -0.625188 0.435179 1.125000
v -0.625188 0.435180 1.250000
v -0.625188 0.560000 1.250000
v -0.750188 0.560000 1.250000
v -0.750188 0.560000 1.125000
v -0.625188 0.560000 1.125000
vt 0.375000 0.000000
vt 0.625000 0.000000
vt 0.375000 0.250000
vt 0.625000 0.250000
vt 0.375000 0.500000
vt 0.625000 0.500000
vt 0.375000 0.750000
vt 0.625000 0.750000
vt 0.375000 1.000000
vt 0.625000 1.000000
vt 0.875000 0.000000
vt 0.875000 0.250000
vt 0.125000 0.000000
vt 0.395833 0.250000
vt 0.395833 0.500000
vt 0.395833 0.750000
vt 0.395833 0.000000
vt 0.395833 1.000000
vt 0.625000 0.009943
vt 0.395833 0.009943
vt 0.375000 0.009943
vt 0.125000 0.009943
vt 0.395833 0.740057
vt 0.875000 0.009943
vt 0.375000 0.010000
vt 0.612500 0.010000
vt 0.612500 0.250000
vt 0.375000 0.250000
vt 0.612500 0.500000
vt 0.375000 0.500000
vt 0.612500 0.740000
vt 0.375000 0.750000
vt 0.612500 0.750000
vt 0.612500 1.000000
vt 0.375000 1.000000
vt 0.625000 0.010000
vt 0.875000 0.010000
vt 0.875000 0.250000
vt 0.625000 0.250000
vt 0.125000 0.010000
vt 0.125000 0.250000
vt 0.625000 0.500000
vt 0.625000 0.750000
vt 0.625000 1.000000
vt 0.125000 0.000000
vt 0.375000 0.000000
vt 0.612500 0.000000
vt 0.625000 0.000000
vt 0.875000 0.000000
vt 0.387500 0.250000
vt 0.387500 0.500000
vt 0.387500 0.740000
vt 0.387500 0.750000
vt 0.387500 0.000000
vt 0.387500 1.000000
vt 0.387500 0.010000
vt 0.604347 0.250000
vt 0.604347 0.500000
vt 0.604347 0.740057
vt 0.604347 0.750000
vt 0.604347 0.000000
vt 0.604347 1.000000
vt 0.604347 0.009943
vt 0.375000 0.000000
vt 0.395833 0.000000
vt 0.395833 0.009943
vt 0.375000 0.009943
vt 0.375000 0.250000
vt 0.395833 0.250000
vt 0.395833 0.500000
vt 0.375000 0.500000
vt 0.395833 0.740057
vt 0.395833 0.750000
vt 0.375000 0.750000
vt 0.395833 1.000000
vt 0.375000 1.000000
vt 0.625000 0.000000
vt 0.875000 0.000000
vt 0.875000 0.009943
vt 0.625000 0.009943
vt 0.125000 0.000000
vt 0.125000 0.009943
vt 0.604347 0.250000
vt 0.604347 0.500000
vt 0.604347 0.740057
vt 0.604347 0.750000
vt 0.604347 1.000000
vt 0.604347 0.000000
vt 0.604347 0.009943
vt 0.125000 0.250000
vt 0.875000 0.250000
vt 0.625000 0.250000
vt 0.375000 0.010000
vt 0.387500 0.010000
vt 0.387500 0.250000
vt 0.375000 0.250000
vt 0.387500 0.500000
vt 0.375000 0.500000
vt 0.387500 0.740000
vt 0.375000 0.750000
vt 0.387500 0.750000
vt 0.387500 1.000000
vt 0.375000 1.000000
vt 0.625000 0.010000
vt 0.875000 0.010000
vt 0.875000 0.250000
vt 0.625000 0.250000
vt 0.125000 0.010000
vt 0.125000 0.250000
vt 0.612500 0.250000
vt 0.625000 0.500000
vt 0.612500 0.500000
vt 0.612500 0.740000
vt 0.612500 1.000000
vt 0.612500 0.750000
vt 0.625000 0.750000
vt 0.625000 1.000000
vt 0.612500 0.010000
vt 0.125000 0.000000
vt 0.375000 0.000000
vt 0.387500 0.000000
vt 0.612500 0.000000
vt 0.625000 0.000000
vt 0.875000 0.000000
vt 0.625000 0.500000
vt 0.625000 0.750000
vt 0.625000 1.000000
vt 0.375000 0.000000
vt 0.387500 0.000000
vt 0.387500 0.250000
vt 0.375000 0.250000
vt 0.387500 0.270833
vt 0.375000 0.500000
vt 0.387500 0.500000
vt 0.387500 0.750000
vt 0.375000 0.750000
vt 0.375000 0.979167
vt 0.387500 0.979167
vt 0.387500 1.000000
vt 0.375000 1.000000
vt 0.625000 0.000000
vt 0.645833 0.000000
vt 0.645833 0.250000
vt 0.625000 0.250000
vt 0.354167 0.000000
vt 0.354167 0.250000
vt 0.612500 0.250000
vt 0.612500 0.270833
vt 0.612500 0.500000
vt 0.612500 0.750000
vt 0.612500 0.979167
vt 0.612500 1.000000
vt 0.612500 0.000000
vt 0.625000 0.500000
vt 0.625000 0.750000
vt 0.625000 0.979167
vt 0.625000 1.000000
vt 0.612500 0.479167
vt 0.387500 0.479167
vt 0.125000 0.000000
vt 0.145833 0.000000
vt 0.145833 0.250000
vt 0.125000 0.250000
vt 0.387500 0.770833
vt 0.375000 0.770833
vt 0.612500 0.770833
vt 0.625000 0.770833
vt 0.854167 0.250000
vt 0.854167 0.000000
vt 0.875000 0.000000
vt 0.875000 0.250000
vn 0.000000 0.000000 -1.000000
vn 0.000000 0.000000 -1.000000
vn 0.000000 0.000000 -1.000000
vn 0.000000 0.000000 -1.000000
vn 0.000000 1.000000 0.000000
vn 0.000000 1.000000 0.000000
vn 0.000000 1.000000 0.000000
vn 0.000000 1.000000 0.000000
vn 0.000000 -1.000000 -0.000000
vn 0.000000 -1.000000 -0.000000
vn 0.000000 -1.000000 -0.000000
vn 0.000000 -1.000000 -0.000000
vn -1.000000 0.000000 -0.000039
vn -1.000000 0.000000 -0.000039
vn -0.981035 -0.193829 -0.000054
vn -0.979927 -0.199356 -0.000055
vn 1.000000 0.000000 0.000000
vn 1.000000 0.000000 0.000000
vn 1.000000 0.000000 0.000000
vn 1.000000 0.000000 0.000000
vn -0.000006 1.000000 -0.000024
vn 0.000009 1.000000 -0.000027
vn 0.000009 1.000000 -0.000027
vn -0.000006 1.000000 -0.000024
vn 0.000001 0.000000 1.000000
vn -0.753625 0.536916 0.379172
vn 0.753598 0.536907 0.379237
vn 0.874096 0.000000 0.485754
vn 0.000005 -1.000000 0.000018
vn 0.000005 -1.000000 0.000018
vn -0.000005 -1.000000 0.000020
vn -0.000005 -1.000000 0.000020
vn 0.000002 -0.333176 -0.942865
vn 0.000000 0.000000 -1.000000
vn 0.000000 0.000000 -1.000000
vn -0.000001 -0.333407 -0.942783
vn 0.000002 -0.358243 -0.933628
vn -0.000002 -0.358244 -0.933628
vn 0.000000 -0.358242 -0.933629
vn 0.000000 -0.358242 -0.933629
vn 0.000000 -0.358242 -0.933629
vn 0.000000 -0.358242 -0.933629
vn 0.000000 0.326422 0.945224
vn 0.807008 0.316927 0.498292
vn -0.977649 -0.210245 -0.000056
vn -0.977649 -0.210245 -0.000056
vn 0.979927 -0.199356 0.000055
vn 0.980654 -0.195749 0.000236
vn 0.977618 -0.210388 0.000227
vn 0.977649 -0.210245 0.000056
vn -0.000082 1.000000 0.000046
vn -0.000045 1.000000 0.000004
vn -0.000045 1.000000 0.000004
vn -0.000082 1.000000 0.000046
vn 0.000065 -1.000000 -0.000037
vn 0.000036 -1.000000 -0.000003
vn 0.000036 -1.000000 -0.000003
vn 0.000065 -1.000000 -0.000037
vn 0.000000 -0.358242 -0.933629
vn 0.000000 -0.358242 -0.933629
vn 0.000000 -0.358242 -0.933629
vn 0.000000 -0.358242 -0.933629
vn 0.000017 -0.334856 0.942269
vn 0.000017 -0.339435 0.940630
vn 0.000018 -0.358246 0.933627
vn 0.000018 -0.358246 0.933627
vn 0.000000 1.000000 0.000000
vn 0.000000 1.000000 0.000000
vn 0.000000 1.000000 0.000000
vn 0.000000 1.000000 0.000000
vn 0.000000 -1.000000 -0.000000
vn 0.000000 -1.000000 -0.000000
vn 0.000000 -1.000000 -0.000000
vn 0.000000 -1.000000 -0.000000
vn 0.977573 -0.210597 0.000000
vn 0.977573 -0.210597 0.000000
vn 0.977573 -0.210597 0.000000
vn 0.977573 -0.210597 0.000000
vn 0.000000 0.000000 1.000000
vn 0.000000 0.000000 1.000000
vn 1.000000 0.000000 0.000039
vn 1.000000 0.000000 0.000155
vn 1.000000 0.000000 0.000000
vn 1.000000 0.000000 0.000000
vn 1.000000 0.000000 0.000000
vn 1.000000 0.000000 0.000000
vn 0.000000 0.000000 -1.000000
vn 0.000000 0.000000 -1.000000
vn 0.000000 0.000000 -1.000000
vn 0.000000 0.000000 -1.000000
vn -0.000041 1.000000 -0.000000
vn -0.000041 1.000000 -0.000000
vn -0.753598 0.536907 -0.379238
vn -0.807007 0.316927 -0.498295
vn -0.984268 0.176684 -0.000063
vn -0.874096 0.000000 -0.485754
vn -1.000000 0.000000 -0.000041
vn 0.000033 -1.000000 0.000000
vn 0.000033 -1.000000 0.000000
vn 1.000000 0.000000 0.000165
vn 0.980626 -0.195891 0.000250
vn 0.977613 -0.210412 0.000256
vn 0.000082 1.000000 -0.000046
vn 0.000082 1.000000 -0.000046
vn -0.000065 -1.000000 0.000037
vn -0.000065 -1.000000 0.000037
vn 0.000001 0.000000 -1.000000
vn -0.000017 -0.339435 -0.940630
vn -0.000018 -0.358246 -0.933627
vn 0.000000 0.000000 1.000000
vn 0.000000 0.000000 1.000000
vn 0.000000 0.000000 1.000000
vn 0.000000 0.000000 1.000000
vn -0.000017 1.000000 0.000016
vn -0.000017 1.000000 0.000016
vn -0.000017 1.000000 0.000016
vn -0.000017 1.000000 0.000016
vn -0.000000 -1.000000 0.000000
vn -0.000000 -1.000000 0.000000
vn -0.000000 -1.000000 0.000000
vn -0.000000 -1.000000 0.000000
vn 1.000000 0.000000 0.000039
vn -1.000000 0.000000 -0.000000
vn -1.000000 0.000000 -0.000000
vn -1.000000 0.000000 -0.000000
vn -1.000000 0.000000 -0.000000
vn 0.000008 1.000000 0.000040
vn 0.000008 1.000000 0.000040
vn 0.000008 1.000000 0.000040
vn 0.000008 1.000000 0.000040
vn -0.000001 0.000000 -1.000000
vn 0.753625 0.536916 -0.379172
vn -0.000005 -1.000000 -0.000018
vn -0.000005 -1.000000 -0.000018
vn -0.000005 -1.000000 -0.000018
vn -0.000005 -1.000000 -0.000018
vn -0.000002 -0.333176 0.942865
vn 0.000000 0.000000 1.000000
vn 0.000000 0.000000 1.000000
vn -0.000002 -0.333174 0.942865
vn -0.000002 -0.358243 0.933628
vn -0.000002 -0.358243 0.933628
vn 0.000000 -0.358242 0.933629
vn 0.000000 -0.358242 0.933629
vn 0.000000 -0.358242 0.933629
vn 0.000000 -0.358242 0.933629
vn -0.977573 -0.210597 0.000000
vn -0.977573 -0.210597 0.000000
vn -0.977573 -0.210597 0.000000
vn -0.977573 -0.210597 0.000000
vn 0.000001 0.326422 -0.945224
vn 0.977649 -0.210245 0.000056
vn -0.977649 -0.210245 -0.000056
vn -0.977649 -0.210245 -0.000056
vn 0.000082 1.000000 -0.000046
vn 0.000082 1.000000 -0.000046
vn -0.000065 -1.000000 0.000037
vn -0.000065 -1.000000 0.000037
vn 0.000000 -0.358242 0.933629
vn 0.000000 -0.358242 0.933629
vn 0.000000 -0.358242 0.933629
vn 0.000000 -0.358242 0.933629
vn -0.000018 -0.358246 -0.933627
vn -0.000017 1.000000 0.000016
vn -0.000017 1.000000 0.000016
vn -0.000017 1.000000 0.000016
vn -0.000017 1.000000 0.000016
vn -0.000000 -1.000000 0.000000
vn -0.000000 -1.000000 0.000000
vn -0.000000 -1.000000 0.000000
vn -0.000000 -1.000000 0.000000
vn -0.977573 -0.210597 0.000000
vn -0.977573 -0.210597 0.000000
vn -0.977573 -0.210597 0.000000
vn -0.977573 -0.210597 0.000000
vn 0.000000 0.000000 -1.000000
vn -1.000000 0.000000 -0.000039
vn -1.000000 0.000000 -0.000039
vn -1.000000 0.000000 -0.000000
vn -1.000000 0.000000 -0.000000
vn -1.000000 0.000000 -0.000000
vn -1.000000 0.000000 -0.000000
vn 0.000000 0.000000 1.000000
vn 0.000000 0.000000 1.000000
vn 0.000000 0.000000 1.000000
vn 0.000000 0.000000 1.000000
vn 0.000024 1.000000 -0.000000
vn 0.000024 1.000000 -0.000000
vn 0.000024 1.000000 -0.000000
vn 0.000024 1.000000 -0.000000
vn 0.984268 0.176685 0.000063
vn 1.000000 0.000000 0.000041
vn -0.000033 -1.000000 -0.000000
vn -0.000033 -1.000000 -0.000000
vn -0.000033 -1.000000 -0.000000
vn -0.000033 -1.000000 -0.000000
vn -0.980626 -0.195891 -0.000250
vn -1.000000 0.000000 -0.000165
vn -1.000000 0.000000 -0.000165
vn -0.980626 -0.195891 -0.000250
vn -0.977613 -0.210412 -0.000256
vn -0.977613 -0.210412 -0.000256
vn -0.000082 1.000000 0.000046
vn -0.000082 1.000000 0.000046
vn 0.000065 -1.000000 -0.000037
vn 0.000065 -1.000000 -0.000037
vn -0.000001 0.000000 1.000000
vn -0.000001 0.000000 1.000000
vn 0.000018 -0.358246 0.933627
vn 0.000018 -0.358246 0.933627
vn 1.000000 0.000000 0.000039
vn -1.000000 0.000000 -0.000000
vn -1.000000 0.000000 -0.000000
vn -1.000000 0.000000 -0.000000
vn -1.000000 0.000000 -0.000000
vn 0.000065 -1.000000 -0.000037
vn 0.000065 -1.000000 -0.000037
vn 0.000000 0.000000 -1.000000
vn 0.000000 0.000000 -1.000000
vn 0.000000 0.000000 -1.000000
vn 0.000000 0.000000 -1.000000
vn 0.000000 0.000000 1.000000
vn 0.000000 0.000000 1.000000
vn -1.000000 0.000000 -0.000165
vn -1.000000 0.000000 -0.000165
vn 0.000033 -1.000000 0.000000
vn 0.000033 -1.000000 0.000000
vn 1.000000 0.000000 0.000165
vn -1.000000 0.000000 -0.000039
vn -1.000000 0.000000 -0.000039
vn 0.000000 -1.000000 -0.000000
vn 0.000000 -1.000000 -0.000000
vn 0.000000 -1.000000 -0.000000
vn 0.000000 -1.000000 -0.000000
vn 1.000000 0.000000 0.000000
vn 1.000000 0.000000 0.000000
vn 1.000000 0.000000 0.000000
vn 1.000000 0.000000 0.000000
vn 0.000000 0.000000 1.000000
vn 0.000000 0.000000 1.000000
vn 0.000000 0.000000 1.000000
vn 0.000000 0.000000 1.000000
vn -0.000000 -1.000000 0.000000
vn -0.000000 -1.000000 0.000000
vn -0.000000 -1.000000 0.000000
vn -0.000000 -1.000000 0.000000
vn -0.000033 -1.000000 -0.000000
vn -0.000033 -1.000000 -0.000000
vn -0.000033 -1.000000 -0.000000
vn -0.000033 -1.000000 -0.000000
vn -0.000065 -1.000000 0.000037
vn -0.000065 -1.000000 0.000037
vn 0.000001 0.000000 -1.000000
vn 0.000000 0.000000 1.000000
vn 0.000000 0.000000 1.000000
vn -0.000005 -1.000000 -0.000018
vn -0.000005 -1.000000 -0.000018
vn -0.000005 -1.000000 -0.000018
vn -0.000005 -1.000000 -0.000018
vn 0.000000 -1.000000 0.000000
vn 0.000000 -1.000000 0.000000
vn 0.000000 -1.000000 0.000000
vn 0.000000 -1.000000 0.000000
vn 0.000005 -1.000000 0.000018
vn 0.000005 -1.000000 0.000018
vn 0.000000 0.000000 -1.000000
s off
g polySurface2
usemtl initialShadingGroup
f 1/1/1 12/17/2 14/20/3 15/21/4
f 3/3/5 9/14/6 10/15/7 5/5/8
f 7/7/9 11/16/10 12/18/11 1/9/12
s 1
f 2/2/13 8/11/14 18/24/15 13/19/16
s off
f 7/13/17 1/1/18 15/21/19 16/22/20
s 2
f 9/14/21 31/57/22 32/58/23 10/15/24
s 3
f 11/16/25 17/23/26 33/59/27 34/60/28
s 4
f 12/18/29 11/16/30 34/60/31 35/62/32
s 5
f 14/20/33 12/17/34 35/61/35 36/63/36
s 6
f 9/14/37 14/20/33 36/63/36 31/57/38
s off
f 15/21/39 14/20/40 9/14/41 3/3/42
s 3
f 33/59/27 17/23/26 10/15/43 32/58/44
s off
f 13/19/16 18/24/15 6/12/45 4/4/46
s 8
f 24/25/47 30/56/48 25/50/49 20/28/50
s 9
f 20/28/51 25/50/52 26/51/53 21/30/54
s 10
f 22/32/55 28/53/56 29/55/57 19/35/58
s off
f 15/36/59 14/37/60 9/38/61 3/39/62
s 11
f 23/40/63 24/25/64 20/28/65 21/41/66
s off
f 5/27/67 3/39/68 9/42/69 10/29/70
f 7/34/71 11/33/72 12/43/73 1/44/74
f 5/27/75 16/26/76 15/36/77 3/39/78
f 22/45/79 19/46/80 24/25/64 23/40/63
s 12
f 19/46/81 29/54/82 30/56/48 24/25/47
s off
f 15/36/83 16/26/84 7/47/85 1/48/86
f 1/48/87 12/49/88 14/37/89 15/36/90
f 25/50/52 5/27/91 10/29/92 26/51/53
s 3
f 27/52/93 26/51/94 10/29/95 17/31/26
f 28/53/96 27/52/93 17/31/26 11/33/97
s off
f 29/55/57 28/53/56 11/33/98 7/34/99
s 12
f 30/56/48 29/54/82 7/47/100 16/26/101
s off
f 25/50/49 30/56/48 16/26/101 5/27/102
f 31/57/22 4/4/103 6/6/104 32/58/23
f 35/62/32 34/60/31 8/8/105 2/10/106
s 15
f 36/63/36 35/61/35 2/2/107 13/19/108
s off
f 31/57/38 36/63/36 13/19/108 4/4/109
f 37/64/110 44/65/111 45/66/112 46/67/113
f 38/68/114 41/69/115 42/70/116 39/71/117
f 40/74/118 43/73/119 44/75/120 37/76/121
f 19/77/122 29/78/82 30/79/48 24/80/47
f 40/81/123 37/64/124 46/67/125 47/82/126
f 41/69/127 21/83/128 26/84/129 42/70/130
s 3
f 43/73/131 48/72/132 27/85/93 28/86/96
s off
f 44/75/133 43/73/134 28/86/135 22/87/136
s 16
f 45/66/137 44/65/138 22/88/139 23/89/140
s off
f 41/69/141 45/66/137 23/89/140 21/83/142
f 46/67/143 45/66/144 41/69/145 38/68/146
f 47/82/147 46/67/148 38/68/149 39/90/150
s 3
f 27/85/93 48/72/132 42/70/151 26/84/94
s 8
f 24/80/47 30/79/48 25/91/49 20/92/152
s off
f 13/93/16 18/94/15 6/95/153 4/96/154
s 2
f 4/96/155 6/95/156 32/97/23 31/98/22
s off
f 35/100/32 34/101/31 8/102/157 2/103/158
f 46/104/159 45/105/160 41/106/161 38/107/162
s 6
f 36/108/36 13/93/108 4/96/163 31/109/38
s off
f 39/110/164 38/107/165 41/111/166 42/112/167
f 40/114/168 43/115/169 44/116/170 37/117/171
f 39/110/172 47/118/173 46/104/174 38/107/175
f 35/119/35 2/120/176 13/93/108 36/108/36
f 2/120/177 8/121/178 18/94/15 13/93/16
f 46/104/179 47/118/180 40/122/181 37/123/182
f 37/123/183 44/124/184 45/105/185 46/104/186
f 6/95/187 39/110/188 42/112/189 32/97/190
s 3
f 33/99/27 32/97/44 42/112/191 48/113/132
f 34/101/28 33/99/27 48/113/132 43/115/192
s off
f 8/102/193 34/101/194 43/115/195 40/114/196
s 17
f 18/94/197 8/121/198 40/122/199 47/118/200
s off
f 6/95/201 18/94/197 47/118/200 39/110/202
s 9
f 21/83/203 20/92/204 25/125/52 26/84/53
s off
f 22/87/205 28/86/56 29/126/57 19/127/206
f 23/89/63 22/88/207 19/77/208 24/80/64
f 21/83/209 23/89/63 24/80/64 20/92/210
s 8
f 19/128/211 29/129/82 30/130/48 24/131/47
s off
f 46/133/212 47/134/213 40/135/214 37/136/215
f 22/137/216 28/138/56 29/139/57 19/140/217
f 1/141/218 12/142/219 14/143/220 15/144/221
s 11
f 22/145/222 19/128/223 24/131/64 23/146/63
s 17
f 40/135/224 47/134/200 18/149/197 8/150/225
s 10
f 29/139/57 28/138/56 11/151/226 7/152/227
s 12
f 30/130/48 29/129/82 7/153/228 16/147/101
s 1
f 8/150/229 18/149/15 13/154/16 2/155/230
s off
f 7/152/231 11/151/232 12/156/233 1/157/234
f 16/147/235 7/153/236 1/141/237 15/144/238
f 37/160/239 44/161/240 45/162/241 46/163/242
f 37/136/243 40/135/244 43/164/245 44/165/246
f 34/166/247 43/164/248 40/135/249 8/150/250
f 35/167/32 34/166/31 8/150/251 2/155/252
s 15
f 36/168/36 35/169/35 2/170/253 13/171/108
s 3
f 27/132/93 17/148/26 33/158/27 48/159/132
s 16
f 44/161/254 22/145/255 23/146/140 45/162/137
s off
f 44/165/256 43/164/257 28/138/258 22/137/259
f 11/151/260 28/138/261 43/164/262 34/166/263
s 4
f 12/156/264 11/151/265 34/166/31 35/167/32
s 5
f 14/143/33 12/142/266 35/169/35 36/168/36
